STARTFONT 2.1
COMMENT Recovered from bigvg.qfasl (MIT CADR System 46 serialized QFASL FONT object)
FONT MIT-CADR-QFASL-BIGVG
SIZE 25 72 72
FONTBOUNDINGBOX 24 25 0 -5
STARTPROPERTIES 2
FONT_ASCENT 20
FONT_DESCENT 5
ENDPROPERTIES
CHARS 128
STARTCHAR C0000
ENCODING -1 0
SWIDTH 400 0
DWIDTH 10 0
BBX 21 25 2 -5
BITMAP
000000
000000
000000
000000
000000
000000
000000
000000
000000
300000
780000
CC0000
CC0000
780000
300000
000000
000000
000000
000000
000000
000000
000000
000000
000000
000000
ENDCHAR
STARTCHAR C0001
ENCODING -1 1
SWIDTH 560 0
DWIDTH 14 0
BBX 21 25 0 -5
BITMAP
060000
060000
060000
060000
060000
060000
060000
060000
060000
060000
060000
060000
060000
060000
C63000
666000
36C000
1F8000
0F0000
060000
000000
000000
000000
000000
000000
ENDCHAR
STARTCHAR C0002
ENCODING -1 2
SWIDTH 880 0
DWIDTH 22 0
BBX 21 25 0 -5
BITMAP
000000
000000
000000
000000
000000
000000
000060
0000C0
000180
000180
1C0300
3F0600
61CE00
C07C00
C03C00
C03000
40E000
61D830
3F0E60
1E07C0
000000
000000
000000
000000
000000
ENDCHAR
STARTCHAR C0003
ENCODING -1 3
SWIDTH 800 0
DWIDTH 20 0
BBX 21 25 0 -5
BITMAP
000000
000F00
001980
0031C0
0060C0
00C0C0
01C180
018300
010300
030600
030C00
061E00
060600
0C0700
0C0380
1801C0
1800C0
390180
31C300
30FE00
700000
600000
600000
600000
E00000
ENDCHAR
STARTCHAR C0004
ENCODING -1 4
SWIDTH 680 0
DWIDTH 17 0
BBX 21 25 0 -5
BITMAP
000000
000000
000000
000000
000000
010000
038000
06C000
06C000
0C6000
0C6000
183000
183000
301800
301800
600C00
600C00
C00600
C00600
000000
000000
000000
000000
000000
000000
ENDCHAR
STARTCHAR C0005
ENCODING -1 5
SWIDTH 480 0
DWIDTH 12 0
BBX 21 25 0 -5
BITMAP
000000
000000
000000
000000
000000
000000
000000
000000
000000
000000
FFC000
FFC000
00C000
00C000
00C000
00C000
000000
000000
000000
000000
000000
000000
000000
000000
000000
ENDCHAR
STARTCHAR C0006
ENCODING -1 6
SWIDTH 480 0
DWIDTH 12 0
BBX 21 25 0 -5
BITMAP
000000
000000
000000
000000
078000
0C0000
180000
300000
600000
600000
E00000
FF8000
E00000
600000
600000
300000
180000
0C0000
078000
000000
000000
000000
000000
000000
000000
ENDCHAR
STARTCHAR C0007
ENCODING -1 7
SWIDTH 640 0
DWIDTH 16 0
BBX 21 25 0 -5
BITMAP
000000
000000
000000
000000
000000
000000
000000
FFC000
FFF800
307C00
306000
306000
306000
306000
306000
306000
306000
306000
306000
F06000
003C00
000000
000000
000000
000000
ENDCHAR
STARTCHAR C0008
ENCODING -1 8
SWIDTH 600 0
DWIDTH 15 0
BBX 21 25 0 -5
BITMAP
000000
000000
C00000
F00000
780000
180000
0C0000
0C0000
060000
060000
060000
0F0000
1B0000
318000
318000
60C000
E0C000
C06000
803800
001800
000000
000000
000000
000000
000000
ENDCHAR
STARTCHAR C0009
ENCODING -1 9
SWIDTH 640 0
DWIDTH 16 0
BBX 21 25 0 -5
BITMAP
000000
000000
000000
000800
C01800
E03800
707000
38E000
1DC000
0F8000
070000
070000
070000
078000
058000
058000
058000
078000
030000
000000
000000
000000
000000
000000
000000
ENDCHAR
STARTCHAR C000A
ENCODING -1 10
SWIDTH 640 0
DWIDTH 16 0
BBX 21 25 0 -5
BITMAP
000000
000000
000000
0FC000
3FF000
707000
601000
700000
3C0000
0F0000
0FC000
3FE000
707000
C03000
C03000
C03000
E07000
78E000
7FE000
1F8000
000000
000000
000000
000000
000000
ENDCHAR
STARTCHAR C000B
ENCODING -1 11
SWIDTH 560 0
DWIDTH 14 0
BBX 21 25 0 -5
BITMAP
060000
0F0000
1F8000
36C000
666000
C63000
060000
060000
060000
060000
060000
060000
060000
060000
060000
060000
060000
060000
060000
060000
000000
000000
000000
000000
000000
ENDCHAR
STARTCHAR C000C
ENCODING -1 12
SWIDTH 640 0
DWIDTH 16 0
BBX 21 25 0 -5
BITMAP
000000
030000
030000
030000
030000
030000
030000
FFFC00
FFFC00
030000
030000
030000
030000
030000
030000
000000
000000
FFFC00
FFFC00
000000
000000
000000
000000
000000
000000
ENDCHAR
STARTCHAR C000D
ENCODING -1 13
SWIDTH 640 0
DWIDTH 16 0
BBX 21 25 0 -5
BITMAP
000000
000000
000000
000000
000000
078000
1FE000
333000
631800
430800
C30C00
FFFC00
FFFC00
C30C00
430800
631800
333000
1FE000
078000
000000
000000
000000
000000
000000
000000
ENDCHAR
STARTCHAR C000E
ENCODING -1 14
SWIDTH 920 0
DWIDTH 23 0
BBX 21 25 1 -5
BITMAP
000000
000000
000000
000000
000000
000000
1E0780
330CC0
619860
C0F030
C06030
C06030
C06030
C06030
C0F030
619860
339CC0
1F0F80
000000
000000
000000
000000
000000
000000
000000
ENDCHAR
STARTCHAR C000F
ENCODING -1 15
SWIDTH 600 0
DWIDTH 15 0
BBX 21 25 0 -5
BITMAP
1C0000
060000
030000
038000
018000
00C000
006000
006000
003000
1F3000
3FF000
607800
403800
C01800
C01800
C01800
403000
603000
206000
1FC000
000000
000000
000000
000000
000000
ENDCHAR
STARTCHAR C0010
ENCODING -1 16
SWIDTH 680 0
DWIDTH 17 0
BBX 21 25 0 -5
BITMAP
000000
000000
000000
000000
000000
000000
1FFC00
3FFC00
700000
E00000
C00000
C00000
C00000
E00000
700000
3FFC00
1FFC00
000000
000000
000000
000000
000000
000000
000000
000000
ENDCHAR
STARTCHAR C0011
ENCODING -1 17
SWIDTH 680 0
DWIDTH 17 0
BBX 21 25 0 -5
BITMAP
000000
000000
000000
000000
000000
000000
FFE000
FFF000
003800
001C00
000C00
000C00
000C00
001C00
003800
FFF000
FFE000
000000
000000
000000
000000
000000
000000
000000
000000
ENDCHAR
STARTCHAR C0012
ENCODING -1 18
SWIDTH 600 0
DWIDTH 15 0
BBX 21 25 1 -5
BITMAP
000000
000000
000000
000000
000000
1F0000
3F8000
71C000
E0E000
C06000
C06000
C06000
C06000
C06000
C06000
C06000
C06000
C06000
C06000
C06000
000000
000000
000000
000000
000000
ENDCHAR
STARTCHAR C0013
ENCODING -1 19
SWIDTH 600 0
DWIDTH 15 0
BBX 21 25 1 -5
BITMAP
000000
000000
000000
000000
000000
C06000
C06000
C06000
C06000
C06000
C06000
C06000
C06000
C06000
C06000
C06000
E0E000
71C000
3F8000
1F0000
000000
000000
000000
000000
000000
ENDCHAR
STARTCHAR C0014
ENCODING -1 20
SWIDTH 640 0
DWIDTH 16 0
BBX 21 25 0 -5
BITMAP
C00C00
C00C00
601800
601800
601800
303000
303000
3FF000
1FE000
186000
186000
0CC000
0CC000
0CC000
078000
078000
078000
030000
030000
030000
000000
000000
000000
000000
000000
ENDCHAR
STARTCHAR C0015
ENCODING -1 21
SWIDTH 600 0
DWIDTH 15 0
BBX 21 25 0 -5
BITMAP
FFF800
FFF800
001800
001800
001800
001800
001800
001800
001800
07F800
07F800
001800
001800
001800
001800
001800
001800
001800
FFF800
FFF800
000000
000000
000000
000000
000000
ENDCHAR
STARTCHAR C0016
ENCODING -1 22
SWIDTH 640 0
DWIDTH 16 0
BBX 21 25 0 -5
BITMAP
000000
000000
000000
000000
000000
078000
1FE000
201000
787800
4CC800
C78C00
C30C00
C78C00
4CC800
787800
303000
1FE000
078000
000000
000000
000000
000000
000000
000000
000000
ENDCHAR
STARTCHAR C0017
ENCODING -1 23
SWIDTH 720 0
DWIDTH 18 0
BBX 21 25 0 -5
BITMAP
000000
000000
000000
000000
000000
000000
000000
0C3000
181800
300C00
600600
FFFF00
FFFF00
600600
300C00
181800
0C3000
000000
000000
000000
000000
000000
000000
000000
000000
ENDCHAR
STARTCHAR C0018
ENCODING -1 24
SWIDTH 720 0
DWIDTH 18 0
BBX 21 25 0 -5
BITMAP
000000
000000
000000
000000
000000
000000
040000
0C0000
180000
300000
600000
FFFF00
FFFF00
600000
300000
180000
0C0000
040000
000000
000000
000000
000000
000000
000000
000000
ENDCHAR
STARTCHAR C0019
ENCODING -1 25
SWIDTH 720 0
DWIDTH 18 0
BBX 21 25 0 -5
BITMAP
000000
000000
000000
000000
000000
000000
002000
003000
001800
000C00
000600
FFFF00
FFFF00
000600
000C00
001800
003000
002000
000000
000000
000000
000000
000000
000000
000000
ENDCHAR
STARTCHAR C001A
ENCODING -1 26
SWIDTH 640 0
DWIDTH 16 0
BBX 21 25 1 -5
BITMAP
000000
000000
003000
003000
006000
006000
00C000
00C000
018000
FFF000
FFF000
030000
060000
FFF000
FFF000
180000
300000
300000
600000
600000
C00000
C00000
000000
000000
000000
ENDCHAR
STARTCHAR C001B
ENCODING -1 27
SWIDTH 640 0
DWIDTH 16 0
BBX 21 25 0 -5
BITMAP
000000
000000
020000
020000
070000
070000
0F8000
1DC000
38E000
707000
F07800
707000
38E000
1DC000
0F8000
070000
070000
020000
020000
000000
000000
000000
000000
000000
000000
ENDCHAR
STARTCHAR C001C
ENCODING -1 28
SWIDTH 560 0
DWIDTH 14 0
BBX 21 25 0 -5
BITMAP
000000
000000
000000
000000
003000
00F000
03C000
0F0000
3C0000
F00000
F00000
3C0000
0F0000
03C000
00F000
003000
000000
000000
FFF000
FFF000
000000
000000
000000
000000
000000
ENDCHAR
STARTCHAR C001D
ENCODING -1 29
SWIDTH 560 0
DWIDTH 14 0
BBX 21 25 0 -5
BITMAP
000000
000000
000000
000000
C00000
F00000
3C0000
0F0000
03C000
00F000
00F000
03C000
0F0000
3C0000
F00000
C00000
000000
000000
FFF000
FFF000
000000
000000
000000
000000
000000
ENDCHAR
STARTCHAR C001E
ENCODING -1 30
SWIDTH 480 0
DWIDTH 12 0
BBX 21 25 0 -5
BITMAP
000000
000000
000000
000000
000000
000000
000000
FFC000
FFC000
000000
000000
FFC000
FFC000
000000
000000
FFC000
FFC000
000000
000000
000000
000000
000000
000000
000000
000000
ENDCHAR
STARTCHAR C001F
ENCODING -1 31
SWIDTH 680 0
DWIDTH 17 0
BBX 21 25 0 -5
BITMAP
000000
000000
000000
000000
000000
000000
C00600
C00600
600C00
600C00
301800
301800
183000
183000
0C6000
0C6000
06C000
06C000
038000
010000
000000
000000
000000
000000
000000
ENDCHAR
STARTCHAR C0020
ENCODING -1 32
SWIDTH 400 0
DWIDTH 10 0
BBX 21 25 0 -5
BITMAP
000000
000000
000000
000000
000000
000000
000000
000000
000000
000000
000000
000000
000000
000000
000000
000000
000000
000000
000000
000000
000000
000000
000000
000000
000000
ENDCHAR
STARTCHAR C0021
ENCODING -1 33
SWIDTH 280 0
DWIDTH 7 0
BBX 21 25 1 -5
BITMAP
000000
600000
F00000
F00000
F00000
F00000
F00000
600000
600000
600000
600000
600000
600000
000000
000000
000000
600000
F00000
F00000
600000
000000
000000
000000
000000
000000
ENDCHAR
STARTCHAR C0022
ENCODING -1 34
SWIDTH 440 0
DWIDTH 11 0
BBX 21 25 1 -5
BITMAP
E70000
E70000
E70000
E70000
E70000
E70000
420000
000000
000000
000000
000000
000000
000000
000000
000000
000000
000000
000000
000000
000000
000000
000000
000000
000000
000000
ENDCHAR
STARTCHAR C0023
ENCODING -1 35
SWIDTH 640 0
DWIDTH 16 0
BBX 21 25 1 -5
BITMAP
000000
000000
000000
000000
000000
000000
18C000
18C000
18C000
FFF800
FFF800
18C000
18C000
18C000
FFF800
FFF800
18C000
18C000
18C000
000000
000000
000000
000000
000000
000000
ENDCHAR
STARTCHAR C0024
ENCODING -1 36
SWIDTH 520 0
DWIDTH 13 0
BBX 21 25 0 -5
BITMAP
090000
0F8000
39C000
294000
696000
696000
696000
790000
7D0000
3F0000
1F8000
0BC000
09E000
696000
E92000
E96000
496000
69C000
3F8000
090000
090000
090000
000000
000000
000000
ENDCHAR
STARTCHAR C0025
ENCODING -1 37
SWIDTH 600 0
DWIDTH 15 0
BBX 21 25 0 -5
BITMAP
000000
001800
783000
FC3000
CC6000
CC6000
CCC000
FCC000
798000
018000
030000
030000
060000
06F000
0DF800
0D9800
199800
199800
31F800
30F000
000000
000000
000000
000000
000000
ENDCHAR
STARTCHAR C0026
ENCODING -1 38
SWIDTH 760 0
DWIDTH 19 0
BBX 21 25 0 -5
BITMAP
000000
03C000
0EF000
0C7000
183800
1C3000
1C7000
0EE000
0F8000
0F0F80
3F0200
738200
61C200
E1C600
E0E400
E0E400
F07800
F03800
787C00
3FCF00
0E0000
000000
000000
000000
000000
ENDCHAR
STARTCHAR C0027
ENCODING -1 39
SWIDTH 280 0
DWIDTH 7 0
BBX 21 25 0 -5
BITMAP
000000
F00000
F80000
D80000
080000
180000
300000
600000
000000
000000
000000
000000
000000
000000
000000
000000
000000
000000
000000
000000
000000
000000
000000
000000
000000
ENDCHAR
STARTCHAR C0028
ENCODING -1 40
SWIDTH 360 0
DWIDTH 9 0
BBX 21 25 0 -5
BITMAP
040000
0C0000
180000
180000
300000
300000
600000
600000
600000
E00000
C00000
C00000
C00000
E00000
600000
600000
600000
300000
300000
180000
180000
0C0000
040000
000000
000000
ENDCHAR
STARTCHAR C0029
ENCODING -1 41
SWIDTH 360 0
DWIDTH 9 0
BBX 21 25 1 -5
BITMAP
800000
C00000
600000
600000
300000
300000
180000
180000
180000
1C0000
0C0000
0C0000
0C0000
1C0000
180000
180000
180000
300000
300000
600000
600000
C00000
800000
000000
000000
ENDCHAR
STARTCHAR C002A
ENCODING -1 42
SWIDTH 520 0
DWIDTH 13 0
BBX 21 25 0 -5
BITMAP
000000
000000
000000
000000
000000
040000
0E0000
0E0000
E4E000
F5E000
3F8000
0E0000
0E0000
3F8000
F5E000
E4E000
0E0000
0E0000
040000
000000
000000
000000
000000
000000
000000
ENDCHAR
STARTCHAR C002B
ENCODING -1 43
SWIDTH 600 0
DWIDTH 15 0
BBX 21 25 1 -5
BITMAP
000000
000000
000000
000000
000000
000000
060000
060000
060000
060000
060000
FFF000
FFF000
060000
060000
060000
060000
060000
000000
000000
000000
000000
000000
000000
000000
ENDCHAR
STARTCHAR C002C
ENCODING -1 44
SWIDTH 240 0
DWIDTH 6 0
BBX 21 25 0 -5
BITMAP
000000
000000
000000
000000
000000
000000
000000
000000
000000
000000
000000
000000
000000
000000
000000
000000
600000
F00000
F00000
300000
300000
700000
600000
C00000
800000
ENDCHAR
STARTCHAR C002D
ENCODING -1 45
SWIDTH 520 0
DWIDTH 13 0
BBX 21 25 1 -5
BITMAP
000000
000000
000000
000000
000000
000000
000000
000000
000000
000000
000000
FFC000
FFC000
000000
000000
000000
000000
000000
000000
000000
000000
000000
000000
000000
000000
ENDCHAR
STARTCHAR C002E
ENCODING -1 46
SWIDTH 240 0
DWIDTH 6 0
BBX 21 25 0 -5
BITMAP
000000
000000
000000
000000
000000
000000
000000
000000
000000
000000
000000
000000
000000
000000
000000
000000
000000
E00000
F00000
E00000
000000
000000
000000
000000
000000
ENDCHAR
STARTCHAR C002F
ENCODING -1 47
SWIDTH 520 0
DWIDTH 13 0
BBX 21 25 1 -5
BITMAP
00C000
01C000
018000
018000
038000
030000
030000
070000
060000
060000
0E0000
0C0000
0C0000
1C0000
180000
180000
380000
300000
300000
700000
600000
600000
E00000
C00000
C00000
ENDCHAR
STARTCHAR C0030
ENCODING -1 48
SWIDTH 640 0
DWIDTH 16 0
BBX 21 25 0 -5
BITMAP
000000
0F8000
1FC000
38E000
707000
603000
E03800
C01800
C01800
C01800
C01800
C01800
C01800
C01800
E03800
603000
707000
38E000
1FC000
0F8000
000000
000000
000000
000000
000000
ENDCHAR
STARTCHAR C0031
ENCODING -1 49
SWIDTH 640 0
DWIDTH 16 0
BBX 21 25 3 -5
BITMAP
000000
180000
380000
F80000
180000
180000
180000
180000
180000
180000
180000
180000
180000
180000
180000
180000
180000
180000
FF0000
FF0000
000000
000000
000000
000000
000000
ENDCHAR
STARTCHAR C0032
ENCODING -1 50
SWIDTH 640 0
DWIDTH 16 0
BBX 21 25 1 -5
BITMAP
000000
0F0000
3FC000
78E000
E07000
C03000
C03000
003000
007000
00E000
03C000
078000
0E0000
1C0000
380000
700000
600000
E00000
FFF000
FFF000
000000
000000
000000
000000
000000
ENDCHAR
STARTCHAR C0033
ENCODING -1 51
SWIDTH 640 0
DWIDTH 16 0
BBX 21 25 0 -5
BITMAP
000000
1FC000
3FE000
707000
E03800
C01800
C01800
001800
003800
01F000
0FC000
01F000
003800
001800
C01800
C01800
E03800
707000
3FE000
1FC000
000000
000000
000000
000000
000000
ENDCHAR
STARTCHAR C0034
ENCODING -1 52
SWIDTH 640 0
DWIDTH 16 0
BBX 21 25 0 -5
BITMAP
000000
01F000
03F000
033000
063000
063000
0C3000
0C3000
183000
183000
303000
303000
603000
7FFC00
FFFC00
003000
003000
003000
003000
003000
000000
000000
000000
000000
000000
ENDCHAR
STARTCHAR C0035
ENCODING -1 53
SWIDTH 640 0
DWIDTH 16 0
BBX 21 25 0 -5
BITMAP
000000
FFF000
FFF000
C00000
C00000
C00000
C00000
CFC000
DFE000
F87000
F03000
E01800
001800
001800
001800
001800
C03800
E07000
7FE000
3FC000
000000
000000
000000
000000
000000
ENDCHAR
STARTCHAR C0036
ENCODING -1 54
SWIDTH 640 0
DWIDTH 16 0
BBX 21 25 1 -5
BITMAP
000000
0F8000
1FE000
386000
300000
600000
600000
E00000
CF0000
DFC000
F9E000
E06000
E07000
C03000
C03000
E07000
606000
79E000
3FC000
0F0000
000000
000000
000000
000000
000000
ENDCHAR
STARTCHAR C0037
ENCODING -1 55
SWIDTH 640 0
DWIDTH 16 0
BBX 21 25 1 -5
BITMAP
000000
FFF000
FFF000
003000
006000
006000
00C000
00C000
018000
018000
030000
030000
060000
060000
0C0000
0C0000
180000
180000
300000
700000
000000
000000
000000
000000
000000
ENDCHAR
STARTCHAR C0038
ENCODING -1 56
SWIDTH 640 0
DWIDTH 16 0
BBX 21 25 0 -5
BITMAP
000000
0FC000
3FF000
303000
601800
601800
601800
303000
3CF000
0FC000
078000
1FE000
787800
601800
C00C00
C00C00
E01C00
703800
7FF800
1FE000
000000
000000
000000
000000
000000
ENDCHAR
STARTCHAR C0039
ENCODING -1 57
SWIDTH 640 0
DWIDTH 16 0
BBX 21 25 1 -5
BITMAP
000000
0F0000
3FC000
79E000
606000
E07000
C03000
C03000
E07000
607000
79F000
3FB000
0F3000
007000
006000
006000
00E000
E1C000
7F8000
1F0000
000000
000000
000000
000000
000000
ENDCHAR
STARTCHAR C003A
ENCODING -1 58
SWIDTH 280 0
DWIDTH 7 0
BBX 21 25 1 -5
BITMAP
000000
000000
000000
000000
000000
000000
000000
000000
600000
F00000
F00000
600000
000000
000000
000000
000000
600000
F00000
F00000
600000
000000
000000
000000
000000
000000
ENDCHAR
STARTCHAR C003B
ENCODING -1 59
SWIDTH 240 0
DWIDTH 6 0
BBX 21 25 0 -5
BITMAP
000000
000000
000000
000000
000000
000000
000000
000000
600000
F00000
F00000
600000
000000
000000
000000
600000
F00000
F00000
300000
300000
700000
600000
C00000
800000
000000
ENDCHAR
STARTCHAR C003C
ENCODING -1 60
SWIDTH 560 0
DWIDTH 14 0
BBX 21 25 0 -5
BITMAP
000000
000000
000000
000000
003000
00F000
03C000
0F0000
3C0000
F00000
F00000
3C0000
0F0000
03C000
00F000
003000
000000
000000
000000
000000
000000
000000
000000
000000
000000
ENDCHAR
STARTCHAR C003D
ENCODING -1 61
SWIDTH 640 0
DWIDTH 16 0
BBX 21 25 1 -5
BITMAP
000000
000000
000000
000000
000000
000000
000000
000000
000000
FFF800
FFF800
000000
000000
FFF800
FFF800
000000
000000
000000
000000
000000
000000
000000
000000
000000
000000
ENDCHAR
STARTCHAR C003E
ENCODING -1 62
SWIDTH 560 0
DWIDTH 14 0
BBX 21 25 0 -5
BITMAP
000000
000000
000000
000000
C00000
F00000
3C0000
0F0000
03C000
00F000
00F000
03C000
0F0000
3C0000
F00000
C00000
000000
000000
000000
000000
000000
000000
000000
000000
000000
ENDCHAR
STARTCHAR C003F
ENCODING -1 63
SWIDTH 440 0
DWIDTH 11 0
BBX 21 25 0 -5
BITMAP
000000
3E0000
7F0000
C38000
C18000
C18000
C38000
030000
070000
060000
0C0000
180000
180000
180000
180000
000000
000000
180000
3C0000
180000
000000
000000
000000
000000
000000
ENDCHAR
STARTCHAR C0040
ENCODING -1 64
SWIDTH 800 0
DWIDTH 20 0
BBX 21 25 1 -5
BITMAP
000000
000000
000000
000000
000000
0FFC00
1FFE00
300700
600380
C3C180
C7E180
CE7180
CC3180
CC3180
CC3180
CC3180
CFFF00
C7FE00
E00000
7FFF80
3FFF80
000000
000000
000000
000000
ENDCHAR
STARTCHAR C0041
ENCODING -1 65
SWIDTH 720 0
DWIDTH 18 0
BBX 21 25 0 -5
BITMAP
000000
03C000
03C000
03C000
066000
066000
066000
0C3000
0C3000
0C3000
181800
181800
181800
3FFC00
3FFC00
300C00
600600
600600
E00700
C00300
000000
000000
000000
000000
000000
ENDCHAR
STARTCHAR C0042
ENCODING -1 66
SWIDTH 680 0
DWIDTH 17 0
BBX 21 25 1 -5
BITMAP
000000
FFE000
FFF800
C07C00
C01C00
C00C00
C00C00
C01C00
C07C00
FFF800
FFE000
C07800
C01C00
C01C00
C00C00
C00C00
C01C00
C07C00
FFF800
FFE000
000000
000000
000000
000000
000000
ENDCHAR
STARTCHAR C0043
ENCODING -1 67
SWIDTH 680 0
DWIDTH 17 0
BBX 21 25 0 -5
BITMAP
000000
07E000
1FF800
3C3C00
700C00
600E00
E00600
C00000
C00000
C00000
C00000
C00000
C00000
C00000
E00600
600E00
700C00
3C3C00
1FF800
07E000
000000
000000
000000
000000
000000
ENDCHAR
STARTCHAR C0044
ENCODING -1 68
SWIDTH 680 0
DWIDTH 17 0
BBX 21 25 1 -5
BITMAP
000000
FFC000
FFE000
C0F800
C03800
C01C00
C01C00
C00C00
C00C00
C00C00
C00C00
C00C00
C00C00
C00C00
C00C00
C01C00
C03800
C0F800
FFE000
FFC000
000000
000000
000000
000000
000000
ENDCHAR
STARTCHAR C0045
ENCODING -1 69
SWIDTH 600 0
DWIDTH 15 0
BBX 21 25 1 -5
BITMAP
000000
FFF000
FFF000
C00000
C00000
C00000
C00000
C00000
C00000
FF8000
FF8000
C00000
C00000
C00000
C00000
C00000
C00000
C00000
FFF000
FFF000
000000
000000
000000
000000
000000
ENDCHAR
STARTCHAR C0046
ENCODING -1 70
SWIDTH 600 0
DWIDTH 15 0
BBX 21 25 1 -5
BITMAP
000000
FFF000
FFF000
C00000
C00000
C00000
C00000
C00000
C00000
FF8000
FF8000
C00000
C00000
C00000
C00000
C00000
C00000
C00000
C00000
C00000
000000
000000
000000
000000
000000
ENDCHAR
STARTCHAR C0047
ENCODING -1 71
SWIDTH 720 0
DWIDTH 18 0
BBX 21 25 1 -5
BITMAP
000000
1FF000
3FF800
783C00
600E00
E00600
C00600
C00000
C00000
C00000
C00000
C0FE00
C0FE00
C00600
C00600
E00E00
601E00
783E00
3FF600
1FE600
000000
000000
000000
000000
000000
ENDCHAR
STARTCHAR C0048
ENCODING -1 72
SWIDTH 640 0
DWIDTH 16 0
BBX 21 25 1 -5
BITMAP
000000
C01800
C01800
C01800
C01800
C01800
C01800
C01800
C01800
C01800
FFF800
FFF800
C01800
C01800
C01800
C01800
C01800
C01800
C01800
C01800
000000
000000
000000
000000
000000
ENDCHAR
STARTCHAR C0049
ENCODING -1 73
SWIDTH 400 0
DWIDTH 10 0
BBX 21 25 1 -5
BITMAP
000000
FC0000
FC0000
300000
300000
300000
300000
300000
300000
300000
300000
300000
300000
300000
300000
300000
300000
300000
FC0000
FC0000
000000
000000
000000
000000
000000
ENDCHAR
STARTCHAR C004A
ENCODING -1 74
SWIDTH 480 0
DWIDTH 12 0
BBX 21 25 0 -5
BITMAP
000000
00C000
00C000
00C000
00C000
00C000
00C000
00C000
00C000
00C000
00C000
00C000
00C000
00C000
00C000
00C000
C0C000
E1C000
7F8000
3F0000
000000
000000
000000
000000
000000
ENDCHAR
STARTCHAR C004B
ENCODING -1 75
SWIDTH 640 0
DWIDTH 16 0
BBX 21 25 1 -5
BITMAP
000000
C01800
C03800
C07000
C0E000
C1C000
C38000
C70000
CE0000
DC0000
FC0000
FE0000
E70000
C38000
C18000
C0C000
C0E000
C06000
C03000
C03000
000000
000000
000000
000000
000000
ENDCHAR
STARTCHAR C004C
ENCODING -1 76
SWIDTH 560 0
DWIDTH 14 0
BBX 21 25 1 -5
BITMAP
000000
C00000
C00000
C00000
C00000
C00000
C00000
C00000
C00000
C00000
C00000
C00000
C00000
C00000
C00000
C00000
C00000
C00000
FFE000
FFE000
000000
000000
000000
000000
000000
ENDCHAR
STARTCHAR C004D
ENCODING -1 77
SWIDTH 840 0
DWIDTH 21 0
BBX 21 25 1 -5
BITMAP
000000
C000C0
C000C0
E000C0
E001C0
E001C0
F003C0
F003C0
F807C0
DC06C0
DC0EC0
CC0CC0
CE1CC0
C618C0
C738C0
C330C0
C3F0C0
C1E0C0
C1E0C0
C0C0C0
000000
000000
000000
000000
000000
ENDCHAR
STARTCHAR C004E
ENCODING -1 78
SWIDTH 680 0
DWIDTH 17 0
BBX 21 25 1 -5
BITMAP
000000
F00C00
F00C00
F80C00
D80C00
CC0C00
CC0C00
C60C00
C60C00
C30C00
C30C00
C18C00
C18C00
C0CC00
C0CC00
C06C00
C06C00
C03C00
C03C00
C01C00
000000
000000
000000
000000
000000
ENDCHAR
STARTCHAR C004F
ENCODING -1 79
SWIDTH 680 0
DWIDTH 17 0
BBX 21 25 0 -5
BITMAP
000000
07C000
1FF000
383800
301800
600C00
E00E00
C00600
C00600
C00600
C00600
C00600
C00600
C00600
C00600
E00E00
600C00
301800
383800
1FF000
07C000
000000
000000
000000
000000
ENDCHAR
STARTCHAR C0050
ENCODING -1 80
SWIDTH 640 0
DWIDTH 16 0
BBX 21 25 1 -5
BITMAP
000000
FFE000
FFF000
C07000
C03800
C01800
C01800
C01800
C03800
C07000
FFF000
FFC000
C00000
C00000
C00000
C00000
C00000
C00000
C00000
C00000
000000
000000
000000
000000
000000
ENDCHAR
STARTCHAR C0051
ENCODING -1 81
SWIDTH 680 0
DWIDTH 17 0
BBX 21 25 0 -5
BITMAP
000000
07C000
1FF000
383800
301800
600C00
E00E00
C00600
C00600
C00600
C00600
C00600
C00600
C00600
C00600
E00E00
600C00
301800
383800
1FF000
07C000
00E000
00FC00
003C00
000000
ENDCHAR
STARTCHAR C0052
ENCODING -1 82
SWIDTH 640 0
DWIDTH 16 0
BBX 21 25 1 -5
BITMAP
000000
FFE000
FFF000
C07000
C03800
C01800
C01800
C01800
C03800
C07000
FFF000
FFC000
C18000
C18000
C0C000
C0E000
C06000
C03000
C03000
C01800
000000
000000
000000
000000
000000
ENDCHAR
STARTCHAR C0053
ENCODING -1 83
SWIDTH 640 0
DWIDTH 16 0
BBX 21 25 1 -5
BITMAP
000000
0F0000
3FC000
79E000
E07000
C03000
C00000
C00000
E00000
700000
7F8000
1FE000
00E000
007000
003000
003000
C03000
E07000
79E000
3FC000
0F0000
000000
000000
000000
000000
ENDCHAR
STARTCHAR C0054
ENCODING -1 84
SWIDTH 640 0
DWIDTH 16 0
BBX 21 25 0 -5
BITMAP
000000
FFFC00
FFFC00
030000
030000
030000
030000
030000
030000
030000
030000
030000
030000
030000
030000
030000
030000
030000
030000
030000
000000
000000
000000
000000
000000
ENDCHAR
STARTCHAR C0055
ENCODING -1 85
SWIDTH 680 0
DWIDTH 17 0
BBX 21 25 1 -5
BITMAP
000000
C00C00
C00C00
C00C00
C00C00
C00C00
C00C00
C00C00
C00C00
C00C00
C00C00
C00C00
C00C00
C00C00
C00C00
C00C00
E01C00
703800
7FF800
1FE000
000000
000000
000000
000000
000000
ENDCHAR
STARTCHAR C0056
ENCODING -1 86
SWIDTH 680 0
DWIDTH 17 0
BBX 21 25 0 -5
BITMAP
000000
C00600
C00600
E00E00
600C00
701C00
301800
301800
383800
183000
183000
1C7000
0C6000
0C6000
0EE000
06C000
06C000
07C000
038000
038000
000000
000000
000000
000000
000000
ENDCHAR
STARTCHAR C0057
ENCODING -1 87
SWIDTH 920 0
DWIDTH 23 0
BBX 21 25 0 -5
BITMAP
000000
C07018
C07018
C07018
C07018
E0F838
E0D838
60D830
60D830
71DC70
71DC70
318C60
318C60
3B8EE0
3B8EE0
1B06C0
1B06C0
1F07C0
0E0380
0E0380
000000
000000
000000
000000
000000
ENDCHAR
STARTCHAR C0058
ENCODING -1 88
SWIDTH 640 0
DWIDTH 16 0
BBX 21 25 0 -5
BITMAP
000000
C01800
C01800
E03800
707000
306000
38E000
1DC000
0F8000
0F8000
070000
0F8000
0F8000
1DC000
38E000
306000
707000
E03800
C01800
C01800
000000
000000
000000
000000
000000
ENDCHAR
STARTCHAR C0059
ENCODING -1 89
SWIDTH 640 0
DWIDTH 16 0
BBX 21 25 0 -5
BITMAP
000000
C00C00
C00C00
E01C00
703800
303000
387000
1CE000
0FC000
0FC000
078000
078000
030000
030000
030000
030000
030000
030000
030000
030000
000000
000000
000000
000000
000000
ENDCHAR
STARTCHAR C005A
ENCODING -1 90
SWIDTH 600 0
DWIDTH 15 0
BBX 21 25 1 -5
BITMAP
000000
FFF000
FFF000
006000
00E000
00C000
018000
018000
030000
030000
060000
060000
0C0000
0C0000
180000
380000
300000
700000
FFF000
FFF000
000000
000000
000000
000000
000000
ENDCHAR
STARTCHAR C005B
ENCODING -1 91
SWIDTH 400 0
DWIDTH 10 0
BBX 21 25 1 -5
BITMAP
FE0000
FE0000
C00000
C00000
C00000
C00000
C00000
C00000
C00000
C00000
C00000
C00000
C00000
C00000
C00000
C00000
C00000
C00000
C00000
C00000
C00000
C00000
C00000
FE0000
FE0000
ENDCHAR
STARTCHAR C005C
ENCODING -1 92
SWIDTH 520 0
DWIDTH 13 0
BBX 21 25 1 -5
BITMAP
C00000
E00000
600000
600000
700000
300000
300000
380000
180000
180000
1C0000
0C0000
0C0000
0E0000
060000
060000
070000
030000
030000
038000
018000
018000
01C000
00C000
00C000
ENDCHAR
STARTCHAR C005D
ENCODING -1 93
SWIDTH 400 0
DWIDTH 10 0
BBX 21 25 1 -5
BITMAP
FE0000
FE0000
060000
060000
060000
060000
060000
060000
060000
060000
060000
060000
060000
060000
060000
060000
060000
060000
060000
060000
060000
060000
060000
FE0000
FE0000
ENDCHAR
STARTCHAR C005E
ENCODING -1 94
SWIDTH 560 0
DWIDTH 14 0
BBX 21 25 0 -5
BITMAP
060000
0F0000
198000
30C000
606000
C03000
000000
000000
000000
000000
000000
000000
000000
000000
000000
000000
000000
000000
000000
000000
000000
000000
000000
000000
000000
ENDCHAR
STARTCHAR C005F
ENCODING -1 95
SWIDTH 640 0
DWIDTH 16 0
BBX 21 25 0 -5
BITMAP
000000
000000
000000
000000
000000
000000
000000
000000
000000
000000
000000
000000
000000
000000
000000
000000
000000
000000
000000
000000
000000
FFFF00
FFFF00
000000
000000
ENDCHAR
STARTCHAR C0060
ENCODING -1 96
SWIDTH 280 0
DWIDTH 7 0
BBX 21 25 0 -5
BITMAP
000000
700000
F80000
F00000
800000
C00000
600000
300000
180000
000000
000000
000000
000000
000000
000000
000000
000000
000000
000000
000000
000000
000000
000000
000000
000000
ENDCHAR
STARTCHAR C0061
ENCODING -1 97
SWIDTH 560 0
DWIDTH 14 0
BBX 21 25 1 -5
BITMAP
000000
000000
000000
000000
000000
000000
000000
1F0000
7F8000
61C000
C0C000
00C000
0FC000
3FC000
F8C000
E0C000
C0C000
E3C000
FEC000
3CC000
000000
000000
000000
000000
000000
ENDCHAR
STARTCHAR C0062
ENCODING -1 98
SWIDTH 640 0
DWIDTH 16 0
BBX 21 25 1 -5
BITMAP
000000
C00000
C00000
C00000
C00000
C00000
C00000
CF8000
DFC000
F0E000
E06000
C07000
C03000
C03000
C03000
C07000
E06000
F0E000
DFC000
CF8000
000000
000000
000000
000000
000000
ENDCHAR
STARTCHAR C0063
ENCODING -1 99
SWIDTH 520 0
DWIDTH 13 0
BBX 21 25 0 -5
BITMAP
000000
000000
000000
000000
000000
000000
000000
1F0000
3F8000
70C000
604000
E00000
C00000
C00000
C00000
E00000
604000
70C000
3F8000
1F0000
000000
000000
000000
000000
000000
ENDCHAR
STARTCHAR C0064
ENCODING -1 100
SWIDTH 600 0
DWIDTH 15 0
BBX 21 25 0 -5
BITMAP
000000
003000
003000
003000
003000
003000
003000
1F3000
3FF000
70F000
607000
E03000
C03000
C03000
C03000
E03000
607000
70F000
3FF000
1F3000
000000
000000
000000
000000
000000
ENDCHAR
STARTCHAR C0065
ENCODING -1 101
SWIDTH 600 0
DWIDTH 15 0
BBX 21 25 0 -5
BITMAP
000000
000000
000000
000000
000000
000000
000000
1F8000
3FC000
70E000
E06000
C03000
FFF000
FFF000
C00000
C00000
C03000
F0E000
7FC000
1F8000
000000
000000
000000
000000
000000
ENDCHAR
STARTCHAR C0066
ENCODING -1 102
SWIDTH 400 0
DWIDTH 10 0
BBX 21 25 0 -5
BITMAP
000000
0E0000
1E0000
180000
300000
300000
300000
FE0000
FE0000
300000
300000
300000
300000
300000
300000
300000
300000
300000
300000
300000
000000
000000
000000
000000
000000
ENDCHAR
STARTCHAR C0067
ENCODING -1 103
SWIDTH 600 0
DWIDTH 15 0
BBX 21 25 0 -5
BITMAP
000000
000000
000000
000000
000000
000000
000000
1F7000
7FE000
E18000
C0C000
C0C000
C0C000
61C000
7F8000
3F0000
E00000
400000
3FE000
E7F000
C03000
C03000
607000
7FE000
3F8000
ENDCHAR
STARTCHAR C0068
ENCODING -1 104
SWIDTH 600 0
DWIDTH 15 0
BBX 21 25 1 -5
BITMAP
000000
C00000
C00000
C00000
C00000
C00000
C00000
CF8000
DFC000
F0E000
E06000
C06000
C06000
C06000
C06000
C06000
C06000
C06000
C06000
C06000
000000
000000
000000
000000
000000
ENDCHAR
STARTCHAR C0069
ENCODING -1 105
SWIDTH 280 0
DWIDTH 7 0
BBX 21 25 1 -5
BITMAP
000000
C00000
C00000
C00000
000000
000000
000000
C00000
C00000
C00000
C00000
C00000
C00000
C00000
C00000
C00000
C00000
C00000
C00000
C00000
000000
000000
000000
000000
000000
ENDCHAR
STARTCHAR C006A
ENCODING -1 106
SWIDTH 360 0
DWIDTH 9 0
BBX 21 25 0 -5
BITMAP
000000
180000
180000
180000
000000
000000
000000
180000
180000
180000
180000
180000
180000
180000
180000
180000
180000
180000
180000
180000
180000
180000
380000
F00000
E00000
ENDCHAR
STARTCHAR C006B
ENCODING -1 107
SWIDTH 560 0
DWIDTH 14 0
BBX 21 25 1 -5
BITMAP
000000
000000
C00000
C00000
C00000
C00000
C00000
C38000
C70000
C60000
CC0000
DC0000
FC0000
F60000
E30000
C38000
C1C000
C0C000
C0E000
C06000
000000
000000
000000
000000
000000
ENDCHAR
STARTCHAR C006C
ENCODING -1 108
SWIDTH 280 0
DWIDTH 7 0
BBX 21 25 1 -5
BITMAP
000000
C00000
C00000
C00000
C00000
C00000
C00000
C00000
C00000
C00000
C00000
C00000
C00000
C00000
C00000
C00000
C00000
C00000
C00000
C00000
000000
000000
000000
000000
000000
ENDCHAR
STARTCHAR C006D
ENCODING -1 109
SWIDTH 800 0
DWIDTH 20 0
BBX 21 25 1 -5
BITMAP
000000
000000
000000
000000
000000
000000
000000
C60C00
DE3C00
DB3600
F1E300
E1C300
C18300
C18300
C18300
C18300
C18300
C18300
C18300
C18300
000000
000000
000000
000000
000000
ENDCHAR
STARTCHAR C006E
ENCODING -1 110
SWIDTH 600 0
DWIDTH 15 0
BBX 21 25 1 -5
BITMAP
000000
000000
000000
000000
000000
000000
000000
C78000
DFC000
D9C000
F0E000
E06000
C06000
C06000
C06000
C06000
C06000
C06000
C06000
C06000
000000
000000
000000
000000
000000
ENDCHAR
STARTCHAR C006F
ENCODING -1 111
SWIDTH 600 0
DWIDTH 15 0
BBX 21 25 0 -5
BITMAP
000000
000000
000000
000000
000000
000000
0F0000
3FC000
79E000
606000
E07000
C03000
C03000
C03000
C03000
E07000
E07000
79E000
3FC000
0F0000
000000
000000
000000
000000
000000
ENDCHAR
STARTCHAR C0070
ENCODING -1 112
SWIDTH 640 0
DWIDTH 16 0
BBX 21 25 1 -5
BITMAP
000000
000000
000000
000000
000000
000000
000000
CF0000
FFC000
F9E000
E06000
E07000
C03000
C03000
C03000
E07000
E07000
F9E000
FFC000
CF0000
C00000
C00000
C00000
C00000
C00000
ENDCHAR
STARTCHAR C0071
ENCODING -1 113
SWIDTH 600 0
DWIDTH 15 0
BBX 21 25 0 -5
BITMAP
000000
000000
000000
000000
000000
000000
000000
0F3000
3FF000
79F000
607000
E07000
C03000
C03000
C03000
E07000
E07000
79F000
3FF000
0F3000
003000
003000
003000
003000
003000
ENDCHAR
STARTCHAR C0072
ENCODING -1 114
SWIDTH 480 0
DWIDTH 12 0
BBX 21 25 1 -5
BITMAP
000000
000000
000000
000000
000000
000000
000000
C70000
DF0000
DC0000
F00000
E00000
C00000
C00000
C00000
C00000
C00000
C00000
C00000
C00000
000000
000000
000000
000000
000000
ENDCHAR
STARTCHAR C0073
ENCODING -1 115
SWIDTH 520 0
DWIDTH 13 0
BBX 21 25 0 -5
BITMAP
000000
000000
000000
000000
000000
000000
000000
1E0000
7F8000
61C000
C00000
E00000
F80000
3F0000
038000
00C000
80C000
E1C000
7F8000
1E0000
000000
000000
000000
000000
000000
ENDCHAR
STARTCHAR C0074
ENCODING -1 116
SWIDTH 400 0
DWIDTH 10 0
BBX 21 25 0 -5
BITMAP
000000
300000
300000
300000
300000
300000
FE0000
FE0000
300000
300000
300000
300000
300000
300000
300000
300000
300000
380000
380000
1E0000
000000
000000
000000
000000
000000
ENDCHAR
STARTCHAR C0075
ENCODING -1 117
SWIDTH 600 0
DWIDTH 15 0
BBX 21 25 1 -5
BITMAP
000000
000000
000000
000000
000000
000000
000000
C06000
C06000
C06000
C06000
C06000
C06000
C06000
C06000
C06000
C06000
E0E000
7FE000
3F6000
000000
000000
000000
000000
000000
ENDCHAR
STARTCHAR C0076
ENCODING -1 118
SWIDTH 600 0
DWIDTH 15 0
BBX 21 25 0 -5
BITMAP
000000
000000
000000
000000
000000
000000
000000
C03000
C03000
C03000
606000
606000
30C000
30C000
198000
198000
090000
0F0000
060000
060000
000000
000000
000000
000000
000000
ENDCHAR
STARTCHAR C0077
ENCODING -1 119
SWIDTH 840 0
DWIDTH 21 0
BBX 21 25 0 -5
BITMAP
000000
000000
000000
000000
000000
000000
000000
C0C0C0
E0C1C0
60C180
60C180
31E300
31E300
31E300
1B3600
1B3600
1B3600
0F3C00
0E1C00
061800
000000
000000
000000
000000
000000
ENDCHAR
STARTCHAR C0078
ENCODING -1 120
SWIDTH 560 0
DWIDTH 14 0
BBX 21 25 0 -5
BITMAP
000000
000000
000000
000000
000000
000000
000000
C06000
E0E000
60C000
318000
3B8000
1B0000
0E0000
0E0000
1B0000
3B8000
318000
60C000
E0E000
000000
000000
000000
000000
000000
ENDCHAR
STARTCHAR C0079
ENCODING -1 121
SWIDTH 640 0
DWIDTH 16 0
BBX 21 25 0 -5
BITMAP
000000
000000
000000
000000
000000
000000
000000
C01800
C01800
603000
603000
306000
306000
18C000
18C000
0D8000
0D8000
070000
070000
060000
060000
0C0000
1C0000
780000
700000
ENDCHAR
STARTCHAR C007A
ENCODING -1 122
SWIDTH 560 0
DWIDTH 14 0
BBX 21 25 0 -5
BITMAP
000000
000000
000000
000000
000000
000000
000000
FFE000
FFE000
00E000
01C000
038000
070000
0E0000
1C0000
380000
700000
E00000
FFE000
FFE000
000000
000000
000000
000000
000000
ENDCHAR
STARTCHAR C007B
ENCODING -1 123
SWIDTH 440 0
DWIDTH 11 0
BBX 21 25 0 -5
BITMAP
078000
0E0000
180000
180000
180000
1C0000
0C0000
0C0000
0C0000
180000
180000
300000
F00000
300000
180000
180000
0C0000
0C0000
0C0000
1C0000
180000
180000
180000
0E0000
078000
ENDCHAR
STARTCHAR C007C
ENCODING -1 124
SWIDTH 280 0
DWIDTH 7 0
BBX 21 25 2 -5
BITMAP
C00000
C00000
C00000
C00000
C00000
C00000
C00000
C00000
C00000
C00000
C00000
C00000
C00000
C00000
C00000
C00000
C00000
C00000
C00000
C00000
C00000
C00000
C00000
C00000
C00000
ENDCHAR
STARTCHAR C007D
ENCODING -1 125
SWIDTH 440 0
DWIDTH 11 0
BBX 21 25 1 -5
BITMAP
F00000
380000
0C0000
0C0000
0C0000
1C0000
180000
180000
180000
080000
0C0000
060000
078000
060000
0C0000
080000
180000
180000
180000
1C0000
0C0000
0C0000
0C0000
380000
F00000
ENDCHAR
STARTCHAR C007E
ENCODING -1 126
SWIDTH 640 0
DWIDTH 16 0
BBX 21 25 0 -5
BITMAP
000000
000000
000000
000000
000000
000000
000000
000000
1C0400
3E0400
7F0C00
679800
C3F800
81F000
80E000
000000
000000
000000
000000
000000
000000
000000
000000
000000
000000
ENDCHAR
STARTCHAR C007F
ENCODING -1 127
SWIDTH 640 0
DWIDTH 16 0
BBX 21 25 0 -5
BITMAP
007800
00FC00
01CC00
01CC00
018000
018000
018000
038000
030000
030000
030000
030000
030000
070000
060000
060000
060000
060000
060000
060000
CC0000
CC0000
CC0000
7C0000
380000
ENDCHAR
ENDFONT
